<svg preserveAspectRatio="none" width="100%" height="100%" overflow="visible" style="display: block;" viewBox="0 0 247.394 123.276" fill="none" xmlns="http://www.w3.org/2000/svg">
<g id="Clothes">
<path id="Vector" d="M136.99 123.081L163.937 57.8767C168.913 48.8911 163.29 39.0815 153.002 39.0815L86.234 39.6786C75.9404 39.6786 73.4134 49.5837 75.8985 58.4737C80.1441 73.6926 93.7133 123.081 93.7133 123.081H136.996H136.99Z" fill="var(--fill-0, white)"/>
<path id="Vector_2" d="M183.194 44.2818L168.511 52.151L184.512 61.3038L151.098 122.728L246.843 122.776C247.501 89.5264 241.645 82.7916 241.645 82.7916C241.669 65.7339 237.639 54.7481 237.639 54.7481C236.01 49.7389 234.052 46.8611 228.854 47.0104C218.662 39.7562 171.32 21.3849 171.32 21.3849C171.32 21.3849 181.799 41.1294 183.188 44.2818H183.194Z" fill="var(--fill-0, #075E8C)" stroke="var(--stroke-0, #231815)" stroke-miterlimit="10"/>
<path id="Vector_3" d="M67.4911 38.9084L74.9883 48.2701L61.0837 56.8259L81.3237 122.728L0.549329 122.776C-0.109369 89.5264 6.04647 82.7916 6.04647 82.7916C6.02252 65.7339 10.0526 54.7481 10.0526 54.7481C11.6813 49.7389 13.6395 46.8611 18.8372 47.0104C29.0291 39.7562 82.3597 19.2952 82.3597 19.2952C82.3597 19.2952 68.8863 35.7559 67.4971 38.9084H67.4911Z" fill="var(--fill-0, #075E8C)" stroke="var(--stroke-0, #231815)" stroke-miterlimit="10"/>
<path id="Vector_4" d="M154.769 4.99586C152.325 0.0343624 162.859 13.5516 170.925 19.7609C170.925 19.7609 182.123 38.6098 183.494 44.3953C183.494 44.3953 176.721 48.3896 169.763 51.7748C174.326 54.2526 182.769 58.9394 185.314 61.1903C177.53 78.0869 159.206 110.793 152.445 122.74H136.229C143.511 96.9298 148.301 62.3964 152.266 43.8878C153.942 36.0425 160.475 16.5966 154.769 4.99586Z" fill="var(--fill-0, #075E8C)" stroke="var(--stroke-0, #231815)" stroke-miterlimit="10"/>
<path id="Vector_5" d="M90.5395 11.9396C77.0063 24.7105 67.6528 34.9977 65.006 39.7263C67 41.3742 70.3115 44.4729 74.1799 47.9418C69.4133 50.2404 64.515 53.0406 59.4549 55.4706C59.3412 64.2592 68.6408 93.664 80.0542 122.764L97.9589 122.746C96.893 103.175 86.8987 28.6749 92.6114 13.9994L90.5395 11.9396Z" fill="var(--fill-0, #075E8C)" stroke="var(--stroke-0, #231815)" stroke-miterlimit="10"/>
<path id="Vector_6" d="M116.666 68.5161C117.952 68.5161 118.995 67.4763 118.995 66.1936C118.995 64.9109 117.952 63.8711 116.666 63.8711C115.379 63.8711 114.337 64.9109 114.337 66.1936C114.337 67.4763 115.379 68.5161 116.666 68.5161Z" fill="var(--fill-0, #E9897F)" stroke="var(--stroke-0, #231815)" stroke-miterlimit="10"/>
<path id="Vector_7" d="M116.666 78.069C117.952 78.069 118.995 77.0291 118.995 75.7464C118.995 74.4637 117.952 73.4239 116.666 73.4239C115.379 73.4239 114.337 74.4637 114.337 75.7464C114.337 77.0291 115.379 78.069 116.666 78.069Z" fill="var(--fill-0, #E9897F)" stroke="var(--stroke-0, #231815)" stroke-miterlimit="10"/>
<path id="Vector_8" d="M116.666 87.6218C117.952 87.6218 118.995 86.582 118.995 85.2993C118.995 84.0166 117.952 82.9767 116.666 82.9767C115.379 82.9767 114.337 84.0166 114.337 85.2993C114.337 86.582 115.379 87.6218 116.666 87.6218Z" fill="var(--fill-0, #E9897F)" stroke="var(--stroke-0, #231815)" stroke-miterlimit="10"/>
<g id="Vector_9">
<path d="M119.079 40.8189C119.558 38.9442 122.373 38.5143 123.415 41.4996C126.337 49.8643 131.014 60.1753 138.786 66.4265C165.404 32.7169 157.96 1.37772 151.14 0.500055" fill="var(--fill-0, white)"/>
<path d="M119.079 40.8189C119.558 38.9442 122.373 38.5143 123.415 41.4996C126.337 49.8643 131.014 60.1753 138.786 66.4265C165.404 32.7169 157.96 1.37772 151.14 0.500055" stroke="var(--stroke-0, #231815)" stroke-linecap="round" stroke-linejoin="round"/>
</g>
<g id="Vector_10">
<path d="M92.0665 14.4472C90.5335 15.4681 90.324 17.5936 90.294 19.4326C89.8988 42.0727 93.0366 59.3693 96.6115 66.4384C109.396 54.9452 108.193 39.4696 113.061 39.1711" fill="var(--fill-0, white)"/>
<path d="M92.0665 14.4472C90.5335 15.4681 90.324 17.5936 90.294 19.4326C89.8988 42.0727 93.0366 59.3693 96.6115 66.4384C109.396 54.9452 108.193 39.4696 113.061 39.1711" stroke="var(--stroke-0, #231815)" stroke-linecap="round" stroke-linejoin="round"/>
</g>
</g>
</svg>
