<svg preserveAspectRatio="none" width="100%" height="100%" overflow="visible" style="display: block;" viewBox="0 0 101.708 94.1172" fill="none" xmlns="http://www.w3.org/2000/svg">
<g id="Group">
<path id="Vector" d="M12.6725 93.6172C7.59449 82.9181 4.1932 75.9744 2.69616 69.3113C0.396704 59.0838 -1.48957 45.8292 4.58243 31.7149C10.6544 17.6006 20.8942 21.6904 20.8942 21.6904C20.8942 21.6904 18.954 17.6723 20.5469 14.1079C22.1397 10.5435 24.9961 7.54033 29.2776 5.24168C26.4393 7.57018 22.2535 10.7883 21.6068 17.7141C21.487 19.0157 22.002 21.2964 22.002 21.2964C22.8763 5.988 43.2121 0.118984 51.0746 0.519008C46.5056 1.30712 45.805 2.2206 45.805 2.2206C58.2963 -0.364628 66.3384 6.94925 74.5722 8.3762C86.0275 10.3584 89.5605 18.5201 92.4888 23.9772C97.6027 27.6013 100.519 35.7988 101.208 40.3125L101.004 64.2901C95.2194 67.8186 96.2254 80.7329 95.0936 82.524L93.86 79.4373C94.7643 62.1049 87.3329 55.394 87.3329 55.394C87.3329 55.394 86.3688 43.8172 85.0694 40.2349C84.3089 38.1512 82.0154 32.915 80.0753 31.7806C74.3925 28.4729 60.5239 28.1864 54.1106 29.3566C51.9009 29.7566 45.3978 33.1479 43.1882 32.7419C36.6491 31.5478 31.7328 31.303 27.595 32.1448C13.5707 34.9928 11.9898 45.4352 10.8101 55.8836C10.8101 55.8836 11.7802 63.8662 11.5407 66.5171C11.373 68.3799 10.1514 71.9861 10.1395 73.8548C10.1035 79.0313 12.6784 93.6112 12.6784 93.6112L12.6725 93.6172Z" fill="var(--fill-0, #0D5E8C)" stroke="var(--stroke-0, #231815)" stroke-linecap="round" stroke-linejoin="round"/>
<path id="Vector_2" d="M44.0445 15.7378C58.1586 11.851 64.2306 25.0698 74.9674 28.455C78.8237 29.6671 87.3749 29.476 91.333 27.5714C91.5965 27.446 91.4468 27.0102 91.1714 27.1057C85.303 29.1058 80.1591 27.2729 80.1591 27.2729C80.1591 27.2729 84.1233 27.1773 85.788 26.2758C86.0694 26.1265 85.9018 25.7026 85.6024 25.8041C85.6024 25.8041 83.3089 26.5564 80.3927 25.3683C70.081 21.165 65.9192 8.85981 53.6734 8.32247C28.7028 7.21792 32.2059 28.4192 38.0563 31.297C38.0563 31.297 30.601 19.4396 44.0445 15.7438V15.7378Z" fill="var(--fill-0, #5DBBE4)"/>
</g>
</svg>
