<svg preserveAspectRatio="none" width="100%" height="100%" overflow="visible" style="display: block;" viewBox="0 0 104.733 68.964" fill="none" xmlns="http://www.w3.org/2000/svg">
<g id="Group">
<path id="Vector" d="M47.7253 2.37626C47.8451 4.01815 47.9768 5.71975 48.7793 7.15864C49.1984 7.91093 49.7913 8.56768 50.4979 9.0513" stroke="var(--stroke-0, #231815)" stroke-linecap="round" stroke-linejoin="round"/>
<path id="Vector_2" d="M39.6832 13.3441C41.4318 15.1472 42.821 17.2906 43.7492 19.6191" stroke="var(--stroke-0, #231815)" stroke-linecap="round" stroke-linejoin="round"/>
<path id="Vector_3" d="M44.0247 23.5179C44.2582 27.3032 44.2941 31.1004 44.1265 34.8857" stroke="var(--stroke-0, #231815)" stroke-linecap="round" stroke-linejoin="round"/>
<path id="Vector_4" d="M44.4378 37.0888C43.6654 38.9277 43.7732 41.113 44.7253 42.8683" stroke="var(--stroke-0, #231815)" stroke-linecap="round" stroke-linejoin="round"/>
<path id="Vector_5" d="M39.2701 38.6232C37.5335 40.9637 37.8808 44.5938 40.0305 46.5581" stroke="var(--stroke-0, #231815)" stroke-linecap="round" stroke-linejoin="round"/>
<path id="Vector_6" d="M42.0965 45.3281C43.2582 44.7609 44.6594 45.1251 45.8151 45.6923C46.9708 46.2595 48.0607 47.0297 49.3182 47.3104C50.3841 47.5492 51.5278 47.4118 52.5099 46.9282C53.6836 46.3491 54.5578 45.3281 55.504 44.4266C56.4501 43.525 57.5879 42.6832 58.8993 42.5817" stroke="var(--stroke-0, #231815)" stroke-linecap="round" stroke-linejoin="round"/>
<path id="Vector_7" d="M60.055 35.7037C60.9831 36.1873 61.8095 36.8739 62.4622 37.6978C63.073 38.468 63.5401 39.4352 63.3844 40.4084C63.1928 41.6443 62.085 42.4981 61.067 43.2265" stroke="var(--stroke-0, #231815)" stroke-linecap="round" stroke-linejoin="round"/>
<path id="Vector_8" d="M45.9768 65.0487C54.3004 66.1533 57.5938 65.0905 63.9233 61.0664" stroke="var(--stroke-0, #231815)" stroke-linecap="round" stroke-linejoin="round"/>
<path id="Vector_9" d="M29.689 60.0813C30.0662 57.9976 27.4075 56.5109 27.168 54.4033C27.0362 53.251 27.677 52.1345 28.4794 51.2927C29.2818 50.4508 30.2519 49.7821 31.0363 48.9224C33.2879 46.4566 33.8627 42.5638 36.6891 40.7786" stroke="var(--stroke-0, #231815)" stroke-linecap="round" stroke-linejoin="round"/>
<path id="Vector_10" d="M63.1868 36.7067C64.2407 37.0112 65.2228 37.5665 66.0312 38.3128" stroke="var(--stroke-0, #231815)" stroke-linecap="round" stroke-linejoin="round"/>
<path id="Vector_11" d="M69.0253 39.8114C70.8576 41.1249 72.7379 42.4683 74.9056 43.1071C75.5164 43.2862 76.1512 43.4116 76.7141 43.7101C78.0794 44.4266 78.774 46.0386 78.8099 47.573C78.8459 49.1075 78.3189 50.5941 77.774 52.033" stroke="var(--stroke-0, #231815)" stroke-linecap="round" stroke-linejoin="round"/>
<path id="Vector_12" d="M32.6531 57.1438L36.9526 58.5588C42.7312 58.111 49.7913 58.2483 53.7794 58.6543C57.5699 57.3408 64.3305 54.9048 67.5761 54.863C70.4205 53.6033 73.1391 51.0539 73.1391 51.0539" stroke="var(--stroke-0, #231815)" stroke-linecap="round" stroke-linejoin="round"/>
<path id="Vector_13" d="M31.8507 58.5886C32.1082 59.4066 32.7789 58.8812 32.6651 57.9558C32.8328 57.09 33.2819 56.5706 33.6891 55.9437C33.6891 55.9437 31.3118 56.8871 31.8507 58.5886Z" fill="var(--fill-0, #231815)"/>
<path id="Vector_14" d="M71.9415 49.5314C73.9415 49.4 75.3847 51.0419 74.6362 51.7106C74.4685 51.8599 73.5703 51.436 73.3607 50.9583C73.1511 50.4807 71.9415 49.5314 71.9415 49.5314Z" fill="var(--fill-0, #231815)"/>
<path id="Vector_15" d="M0.754144 22.3596C-0.557265 29.2316 3.47876 37.5545 6.62854 42.9459C7.67647 44.743 8.85015 49.4358 10.0538 51.1315C12.0119 53.8839 14.1856 54.6959 15.4551 53.0838C13.4251 47.37 9.67053 32.9274 9.67053 32.9274C6.46686 26.736 3.87398 20.7654 3.87398 20.7654C1.64638 19.1833 1.08948 20.5983 0.754144 22.3536V22.3596Z" fill="var(--fill-0, #F7D783)" stroke="var(--stroke-0, #231815)" stroke-miterlimit="10"/>
<path id="Vector_16" d="M99.7985 11.4514C100.972 13.0874 101.385 15.7502 101.05 18.6758" stroke="var(--stroke-0, #231815)" stroke-linecap="round" stroke-linejoin="round"/>
<path id="Vector_17" d="M83.6603 44.7072C85.5047 47.5492 84.1514 52.2898 82.7442 54.7914C80.9777 57.9259 78.786 61.2336 78.1991 64.0696" stroke="var(--stroke-0, #231815)" stroke-linecap="round" stroke-linejoin="round"/>
<path id="Vector_18" d="M21.9044 53.866C21.9403 60.5828 26.5332 61.9799 29.9764 68.4639" stroke="var(--stroke-0, #231815)" stroke-linecap="round" stroke-linejoin="round"/>
<path id="Vector_19" d="M3.1075 24.6343C5.20336 26.6703 7.34113 28.7659 8.32918 31.4109C7.64054 37.459 7.36508 39.1666 12.0059 42.934" stroke="var(--stroke-0, #231815)" stroke-linecap="round" stroke-linejoin="round"/>
<path id="Vector_20" d="M103.308 9.66029C105.344 15.589 103.673 22.5864 101.625 26.9927C100.888 32.8736 100.571 33.7334 100.11 36.8858C99.0919 43.8355 93.2773 44.5699 91.397 42.3727C91.397 42.3727 92.0558 27.2315 93.1216 22.3178C94.0498 18.0429 93.4031 7.46911 98.9781 5.72572C101.787 5.34361 102.828 8.2811 103.302 9.66029H103.308Z" fill="var(--fill-0, #F7D783)" stroke="var(--stroke-0, #231815)" stroke-miterlimit="10"/>
<path id="Vector_21" d="M100.008 9.60655C96.8583 12.2276 94.7025 18.5922 94.2834 22.5865C97.0679 26.8434 95.8523 28.6346 93.948 30.7899C94.1875 34.3304 94.8223 33.4647 95.7864 31.3512" stroke="var(--stroke-0, #231815)" stroke-linecap="round" stroke-linejoin="round"/>
<path id="Vector_22" d="M33.4376 24.3537C34.7241 24.3537 35.767 23.3139 35.767 22.0312C35.767 20.7485 34.7241 19.7087 33.4376 19.7087C32.1511 19.7087 31.1082 20.7485 31.1082 22.0312C31.1082 23.3139 32.1511 24.3537 33.4376 24.3537Z" fill="var(--fill-0, #231815)" stroke="var(--stroke-0, #231815)" stroke-miterlimit="10"/>
<path id="Vector_23" d="M62.8634 21.87C64.1499 21.87 65.1928 20.8302 65.1928 19.5475C65.1928 18.2648 64.1499 17.2249 62.8634 17.2249C61.5769 17.2249 60.534 18.2648 60.534 19.5475C60.534 20.8302 61.5769 21.87 62.8634 21.87Z" fill="var(--fill-0, #231815)" stroke="var(--stroke-0, #231815)" stroke-miterlimit="10"/>
<path id="Vector_24" d="M54.1746 8.29902C52.8452 6.83027 56.0309 4.16145 56.0309 4.16145C60.1448 3.00914 72.9415 7.31306e-07 72.9415 7.31306e-07C78.2051 1.6001 81.4627 7.49896 81.4627 7.49896C81.4627 7.49896 74.9535 5.45705 72.6301 5.33167C68.0372 5.08688 54.1746 8.29902 54.1746 8.29902Z" fill="var(--fill-0, #075E8C)"/>
<path id="Vector_25" d="M38.258 11.0872C38.258 11.0872 35.7011 8.0781 34.5514 7.73778L20.048 7.05118C17.5689 8.40648 14.6647 12.0545 13.6646 16.3652C13.6646 16.3652 20.06 12.5082 22.8146 11.9709C24.9763 11.547 32.4495 11.2783 38.258 11.0872Z" fill="var(--fill-0, #075E8C)"/>
</g>
</svg>
