<svg preserveAspectRatio="none" width="100%" height="100%" overflow="visible" style="display: block;" viewBox="0 0 85.8162 132.683" fill="none" xmlns="http://www.w3.org/2000/svg">
<g id="Group">
<path id="Vector" d="M25.3806 109.239C26.2369 114.033 26.7639 115.352 26.7639 115.352C31.776 120.791 41.0217 129.813 48.4171 132.141C61.9384 124.589 76.4178 114.976 81.6215 103.626C81.6514 99.5902 81.3041 90.0552 81.3041 90.0552C76.5315 97.7453 61.5431 114.845 61.5431 114.845C55.9861 118.033 45.6086 120.093 39.1534 118.499L25.3806 109.239Z" fill="var(--fill-0, #F7D783)" stroke="var(--stroke-0, #231815)" stroke-miterlimit="10"/>
<path id="Vector_2" d="M2.33213 64.0417L3.33216 67.224C3.33216 67.224 8.58976 87.5357 11.4761 94.7839C17.1768 102.862 27.0812 111.86 38.6683 118.696C45.2194 119.579 51.1537 120.314 61.3934 115.412C66.9744 108.886 78.5076 96.2885 82.2922 87.8163C83.4479 79.1173 85.3162 54.1904 85.3162 54.1904L84.0467 51.3663C83.9389 49.2766 84.8731 41.6762 81.6754 34.3384C81.6754 34.3384 80.0646 29.6516 77.4837 27.2395C76.6453 21.4481 77.0345 11.0415 70.8667 3.92462C66.9984 1.80509 49.6027 -3.15043 34.5844 5.07693C9.97304 -0.409969 2.35608 10.9698 1.15246 26.123C0.906944 29.2097 2.52974 36.0699 1.87703 39.3059C1.54169 40.9776 0.86503 42.1837 0.547657 45.6943C0.170402 49.8737 2.1465 58.7399 2.15249 63.0327C2.15249 63.4029 2.33812 64.0537 2.33812 64.0537L2.33213 64.0417Z" fill="var(--fill-0, #F7D783)" stroke="var(--stroke-0, #231815)" stroke-linecap="round" stroke-linejoin="round"/>
</g>
</svg>
