<svg preserveAspectRatio="none" width="100%" height="100%" overflow="visible" style="display: block;" viewBox="0 0 147.428 101.275" fill="none" xmlns="http://www.w3.org/2000/svg">
<g id="Group">
<path id="Vector" d="M146.928 41.5545C145.694 44.8299 141.233 47.126 140.083 47.1908C137.018 46.7303 133.979 43.2603 133.31 39.3557L146.928 41.5545Z" fill="var(--fill-0, #5DBBE4)" stroke="var(--stroke-0, #231815)" stroke-linecap="round" stroke-linejoin="round"/>
<path id="Vector_2" d="M3.82344 66.584C-0.520929 68.9643 -1.81969 82.5395 7.51842 88.124L48.6308 99.5653C38.5459 94.4867 35.6821 86.0679 40.6499 75.8395L3.82344 66.584Z" fill="var(--fill-0, #60BFE8)" stroke="var(--stroke-0, #231815)" stroke-linecap="round" stroke-linejoin="round"/>
<path id="Vector_3" d="M48.9555 99.6755C57.0338 101.647 60.3327 100.512 62.7029 99.7663C83.2364 93.2933 98.2631 79.4392 98.6332 40.2833C100.367 21.5387 114.374 7.58085 124.07 8.26188C124.07 8.26188 94.4058 -2.46595 86.8599 1.30241C64.9433 12.2443 65.229 40.7113 64.164 47.8719C61.1964 67.8552 47.8386 78.2004 38.8446 81.5861C36.6043 87.8256 41.4681 97.6584 48.9555 99.682V99.6755Z" fill="var(--fill-0, #5EBDE6)" stroke="var(--stroke-0, #231815)" stroke-linecap="round" stroke-linejoin="round"/>
<path id="Vector_4" d="M124.063 8.29432C130.674 9.16344 133.245 18.5876 133.089 21.3701C132.83 26.0984 132.96 37.3516 133.654 40.2897C134.518 43.9219 137.297 46.3412 140.044 47.2103L119.745 43.857C110.536 42.2939 108.764 37.3062 108.764 37.3062L107.965 18.3022C109.803 13.3793 118.277 7.52897 124.057 8.29432H124.063Z" fill="var(--fill-0, #5EBDE6)" stroke="var(--stroke-0, #231815)" stroke-linecap="round" stroke-linejoin="round"/>
</g>
</svg>
