<svg preserveAspectRatio="none" width="100%" height="100%" overflow="visible" style="display: block;" viewBox="0 0 101.33 177.289" fill="none" xmlns="http://www.w3.org/2000/svg">
<g id="Group">
<path id="Vector" d="M0.733779 176.763C0.629878 176.867 0.500001 176.621 0.500001 176.621C1.03899 174.863 1.91565 171.121 1.91565 171.121L2.94816 166.892L5.8574 159.18C5.8574 159.18 31.7613 95.6366 42.7748 75.1863C59.86 43.4503 75.4387 23.4085 100.83 0.500001C69.6332 33.9223 57.743 57.3562 46.3334 77.5731C34.3328 98.8342 8.70169 163.584 8.70169 163.584C8.70169 163.584 9.45498 166.029 8.58481 168.87L0.733779 176.757V176.763Z" fill="var(--fill-0, #E9897F)" stroke="var(--stroke-0, #231815)" stroke-linecap="round" stroke-linejoin="round"/>
<path id="Vector_2" d="M1.61044 173.495C2.31177 173.566 2.44165 173.709 2.77933 174.325C2.05851 175.097 1.50005 175.609 0.77274 176.381C1.026 175.265 1.61044 173.495 1.61044 173.495Z" fill="var(--fill-0, #E9897F)" stroke="var(--stroke-0, #231815)" stroke-linecap="round" stroke-linejoin="round"/>
<g id="Vector_3">
<path d="M1.63642 172.496C2.55205 172.152 3.51313 172.904 3.64301 173.605Z" fill="var(--fill-0, #E9897F)"/>
<path d="M1.63642 172.496C2.55205 172.152 3.51313 172.904 3.64301 173.605" stroke="var(--stroke-0, #231815)" stroke-linecap="round" stroke-linejoin="round"/>
</g>
</g>
</svg>
