<svg preserveAspectRatio="none" width="100%" height="100%" overflow="visible" style="display: block;" viewBox="0 0 87.2867 98.8834" fill="none" xmlns="http://www.w3.org/2000/svg">
<g id="Group">
<path id="Vector" d="M3.58286 95.5579C0.634663 92.0879 -0.761509 81.12 1.9594 71.2029C1.98538 71.1186 2.09578 71.1121 2.12825 71.1965C3.1283 73.8168 4.73876 76.9366 6.26481 78.7202C4.79721 49.0857 38.7599 19.3474 41.4873 17.0124C41.5522 16.9541 41.6561 17.0124 41.6496 17.0968L41.3574 26.3134C48.5786 -10.7022 130.544 -14.8533 55.0659 60.4881C40.2665 61.7593 31.5582 65.7093 31.805 65.6963L50.2864 65.5731C50.5722 65.5731 50.6955 65.9298 50.4683 66.1049C34.9545 78.5127 41.0327 83.6301 16.2393 92.464L28.9088 93.2748C28.9088 93.2748 28.9542 93.3137 28.9217 93.3332C28.0256 93.8261 20.272 94.9222 14.2197 95.5708L18.7005 98.2301C18.7524 98.256 18.7459 98.3403 18.681 98.3468C17.2913 98.5738 12.33 97.6723 4.60239 97.6593L3.57636 95.5708L3.58286 95.5579Z" fill="var(--fill-0, white)" stroke="var(--stroke-0, #231815)" stroke-miterlimit="10"/>
<path id="Vector_2" d="M10.7975 88.8059C13.5704 87.6385 16.577 87.0158 19.5836 86.9769" stroke="var(--stroke-0, #231815)" stroke-miterlimit="10"/>
<path id="Vector_3" d="M30.5842 49.8705C30.1491 46.4783 29.1815 43.151 27.7399 40.0442" stroke="var(--stroke-0, #231815)" stroke-miterlimit="10"/>
<path id="Vector_4" d="M28.136 53.3924C27.0256 48.3787 25.8826 43.2742 23.3306 38.8184" stroke="var(--stroke-0, #231815)" stroke-miterlimit="10"/>
<path id="Vector_5" d="M19.3304 73.8752C23.2786 72.8374 27.3503 72.2472 31.4284 72.124" stroke="var(--stroke-0, #231815)" stroke-miterlimit="10"/>
<path id="Vector_6" d="M16.4601 76.3853C24.3371 75.555 32.292 75.4642 40.1885 76.1128" stroke="var(--stroke-0, #231815)" stroke-miterlimit="10"/>
<path id="Vector_7" d="M2.63477 83.1826C4.03743 84.5446 5.34918 85.991 6.57002 87.5087" stroke="var(--stroke-0, #231815)" stroke-miterlimit="10"/>
<path id="Vector_8" d="M3.68676 86.6526L6.13493 89.1756" stroke="var(--stroke-0, #231815)" stroke-miterlimit="10"/>
<path id="Vector_9" d="M42.7796 38.4097C45.9616 38.0725 49.1825 38.1114 52.358 38.507" stroke="var(--stroke-0, #231815)" stroke-miterlimit="10"/>
<path id="Vector_10" d="M41.0912 40.1869C48.9877 39.8756 56.9101 40.3685 64.7092 41.6527" stroke="var(--stroke-0, #231815)" stroke-miterlimit="10"/>
<path id="Vector_11" d="M40.2795 42.3597C44.968 42.1197 49.6695 42.2689 54.3321 42.8137" stroke="var(--stroke-0, #231815)" stroke-miterlimit="10"/>
</g>
</svg>
