<svg preserveAspectRatio="none" width="100%" height="100%" overflow="visible" style="display: block;" viewBox="0 0 117.394 106.443" fill="none" xmlns="http://www.w3.org/2000/svg">
<g id="Group">
<path id="Vector" d="M104.582 105.923C109.472 106.332 110.037 100.125 110.037 100.125L116.894 27.7282C116.901 24.7706 115.284 21.5989 112.115 20.652L51.2288 10.5792C51.3133 7.68648 50.3132 5.57205 48.3326 4.02838L20.8507 0.500001C19.2208 1.4275 18.8182 3.4187 19.0325 5.81203L11.2009 5.40341C6.73317 7.46596 7.68127 14.8795 7.68127 14.8795L0.674444 15.0546C-1.1763 37.0616 12.2919 90.9278 12.2919 90.9278L104.576 105.93L104.582 105.923Z" fill="var(--fill-0, #F8D783)" stroke="var(--stroke-0, #231815)" stroke-linecap="round" stroke-linejoin="round"/>
<path id="Vector_2" d="M106.517 98.3024C106.537 98.4904 106.809 98.484 106.822 98.2959L110.199 26.5413C110.264 25.283 109.349 24.1804 108.095 24.0182L38.3451 14.7822C39.2153 16.8771 39.5075 19.1797 39.5075 19.1797L97.7051 27.2353C98.6337 27.365 99.3676 28.0849 99.5104 29.0124L106.524 98.3088L106.517 98.3024Z" fill="var(--fill-0, white)" stroke="var(--stroke-0, #231815)" stroke-linecap="round" stroke-linejoin="round"/>
<path id="Vector_3" d="M7.93454 15.074C7.93454 15.074 6.31758 8.03025 11.1165 5.44882C11.1165 5.44882 29.546 6.20119 31.9162 7.08329C38.3386 10.5728 39.5335 19.2705 39.5335 19.2705L98.3675 27.352" stroke="var(--stroke-0, #231815)" stroke-linecap="round" stroke-linejoin="round"/>
<path id="Vector_4" d="M33.4877 54.016C34.3843 54.016 35.1112 53.29 35.1112 52.3945C35.1112 51.4989 34.3843 50.773 33.4877 50.773C32.5911 50.773 31.8643 51.4989 31.8643 52.3945C31.8643 53.29 32.5911 54.016 33.4877 54.016Z" fill="var(--fill-0, #231815)" stroke="var(--stroke-0, #231815)" stroke-miterlimit="10"/>
<path id="Vector_5" d="M52.3198 55.9618C53.2164 55.9618 53.9433 55.2358 53.9433 54.3403C53.9433 53.4447 53.2164 52.7188 52.3198 52.7188C51.4232 52.7188 50.6964 53.4447 50.6964 54.3403C50.6964 55.2358 51.4232 55.9618 52.3198 55.9618Z" fill="var(--fill-0, #231815)" stroke="var(--stroke-0, #231815)" stroke-miterlimit="10"/>
<path id="Vector_6" d="M37.9035 60.1517C39.6504 61.5851 46.0987 62.0521 48.9235 61.1895" stroke="var(--stroke-0, #231815)" stroke-linecap="round" stroke-linejoin="round"/>
</g>
</svg>
