<svg preserveAspectRatio="none" width="100%" height="100%" overflow="visible" style="display: block;" viewBox="0 0 32.9862 19.1037" fill="none" xmlns="http://www.w3.org/2000/svg">
<g id="Limb L">
<path id="Vector" d="M32.4862 11.183C29.6289 16.5599 22.1545 19.8418 17.466 18.162C14.3619 17.0529 11.4851 14.8476 10.3617 11.7538C8.47201 12.0651 7.08882 11.9678 5.86798 11.4619C6.7966 10.1323 4.36791 6.7531 1.43919 9.89232C1.26386 9.6718 -0.70377 7.37576 1.6405 6.43529C1.3223 5.81912 1.59505 4.96297 2.21196 4.64515C1.16645 3.28958 2.9003 2.07021 3.69904 1.55133C7.08881 -0.653911 9.87467 1.23351 10.1669 1.62267C12.706 5.02134 10.5241 9.60044 16.3165 12.0716C22.109 14.5428 26.7846 9.87285 28.473 6.41582L32.4862 11.183Z" fill="var(--fill-0, #F7D783)" stroke="var(--stroke-0, #231815)" stroke-linecap="round" stroke-linejoin="round"/>
<g id="Vector_2">
<path d="M1.81583 6.42879L4.19257 6.46121Z" fill="var(--fill-0, #231815)"/>
<path d="M1.81583 6.42879L4.19257 6.46121" stroke="var(--stroke-0, #231815)" stroke-linecap="round" stroke-linejoin="round"/>
</g>
<g id="Vector_3">
<path d="M2.28988 4.59324C2.7899 4.23651 4.54973 3.58144 5.43939 4.15869Z" fill="var(--fill-0, #231815)"/>
<path d="M2.28988 4.59324C2.7899 4.23651 4.54973 3.58144 5.43939 4.15869" stroke="var(--stroke-0, #231815)" stroke-linecap="round" stroke-linejoin="round"/>
</g>
</g>
</svg>
