<svg preserveAspectRatio="none" width="100%" height="100%" overflow="visible" style="display: block;" viewBox="0 0 270.348 122.1" fill="none" xmlns="http://www.w3.org/2000/svg">
<g id="Group">
<g id="Group_2">
<path id="Vector" d="M8.57007 25.2354C4.78006 21.5883 -0.505615 14.0988 0.0389265 8.12167C0.699636 -1.12625 14.2478 -4.13653 17.0649 8.00589C17.5296 13.5706 11.5179 21.6896 8.57007 25.2354Z" fill="var(--fill-0, #231815)"/>
<path id="Vector_2" d="M8.38856 12.9772C10.7785 12.9772 12.7158 11.0463 12.7158 8.66439C12.7158 6.2825 10.7785 4.35159 8.38856 4.35159C5.99866 4.35159 4.06127 6.2825 4.06127 8.66439C4.06127 11.0463 5.99866 12.9772 8.38856 12.9772Z" fill="var(--fill-0, white)" stroke="var(--stroke-0, #231815)" stroke-miterlimit="10"/>
</g>
<g id="Group_3">
<path id="Vector_3" d="M8.57007 57.4512C4.78006 53.8041 -0.505615 46.3146 0.038926 40.3374C0.699636 31.0895 14.2478 28.0792 17.0649 40.2217C17.5296 45.7863 11.5179 53.9054 8.57007 57.4512Z" fill="var(--fill-0, #231815)"/>
<path id="Vector_4" d="M8.38856 45.193C10.7785 45.193 12.7158 43.2621 12.7158 40.8802C12.7158 38.4983 10.7785 36.5674 8.38856 36.5674C5.99866 36.5674 4.06127 38.4983 4.06127 40.8802C4.06127 43.2621 5.99866 45.193 8.38856 45.193Z" fill="var(--fill-0, white)"/>
</g>
<g id="Group_4">
<path id="Vector_5" d="M8.57007 89.2907C4.78006 85.6436 -0.505615 78.1541 0.038926 72.1769C0.699636 62.929 14.2478 59.9187 17.0649 72.0612C17.5296 77.6258 11.5179 85.7449 8.57007 89.2907Z" fill="var(--fill-0, #231815)"/>
<path id="Vector_6" d="M8.38856 77.0324C10.7785 77.0324 12.7158 75.1015 12.7158 72.7197C12.7158 70.3378 10.7785 68.4068 8.38856 68.4068C5.99866 68.4068 4.06127 70.3378 4.06127 72.7197C4.06127 75.1015 5.99866 77.0324 8.38856 77.0324Z" fill="var(--fill-0, white)"/>
</g>
<g id="Group_5">
<path id="Vector_7" d="M8.57007 122.1C4.78006 118.453 -0.505615 110.963 0.038926 104.986C0.699636 95.7382 14.2478 92.7279 17.0649 104.87C17.5296 110.435 11.5179 118.554 8.57007 122.1Z" fill="var(--fill-0, #231815)"/>
<path id="Vector_8" d="M8.38856 109.842C10.7785 109.842 12.7158 107.911 12.7158 105.529C12.7158 103.147 10.7785 101.216 8.38856 101.216C5.99866 101.216 4.06127 103.147 4.06127 105.529C4.06127 107.911 5.99866 109.842 8.38856 109.842Z" fill="var(--fill-0, white)"/>
</g>
<g id="Group_6">
<path id="Vector_9" d="M26.4746 7.21714H92.5456" stroke="var(--stroke-0, #231815)" stroke-miterlimit="10"/>
<path id="Vector_10" d="M26.4746 16.0526H65.6815" stroke="var(--stroke-0, #231815)" stroke-miterlimit="10"/>
</g>
<g id="Group_7">
<path id="Vector_11" d="M26.4746 39.7296H92.5456" stroke="var(--stroke-0, #231815)" stroke-miterlimit="10"/>
<path id="Vector_12" d="M26.4746 48.5651H65.6815" stroke="var(--stroke-0, #231815)" stroke-miterlimit="10"/>
</g>
<g id="Group_8">
<path id="Vector_13" d="M25.0225 72.2493H91.0935" stroke="var(--stroke-0, #231815)" stroke-miterlimit="10"/>
<path id="Vector_14" d="M25.0225 81.0775H64.2294" stroke="var(--stroke-0, #231815)" stroke-miterlimit="10"/>
</g>
<g id="Group_9">
<path id="Vector_15" d="M25.7485 104.762H91.8195" stroke="var(--stroke-0, #231815)" stroke-miterlimit="10"/>
<path id="Vector_16" d="M25.7485 113.59H64.9555" stroke="var(--stroke-0, #231815)" stroke-miterlimit="10"/>
</g>
<path id="Vector_17" d="M258.231 17.3624H269.848V42.9063C269.848 43.7891 269.129 44.4983 268.251 44.4983H266.094C261.76 44.4983 258.239 40.9887 258.239 36.6687V17.3624H258.231Z" fill="var(--fill-0, #FAD783)" stroke="var(--stroke-0, #231815)" stroke-miterlimit="10"/>
<path id="Vector_18" d="M258.231 44.4187H269.848V69.9626C269.848 70.8455 269.129 71.5546 268.251 71.5546H266.094C261.76 71.5546 258.239 68.045 258.239 63.725V44.4187H258.231Z" fill="var(--fill-0, #E9897F)" stroke="var(--stroke-0, #231815)" stroke-miterlimit="10"/>
<path id="Vector_19" d="M258.231 71.6704H269.848V97.2143C269.848 98.0972 269.129 98.8063 268.251 98.8063H266.094C261.76 98.8063 258.239 95.2967 258.239 90.9767V71.6704H258.231Z" fill="var(--fill-0, #62C6F1)" stroke="var(--stroke-0, #231815)" stroke-miterlimit="10"/>
</g>
</svg>
