<svg preserveAspectRatio="none" width="100%" height="100%" overflow="visible" style="display: block;" viewBox="0 0 297.23 176.272" fill="none" xmlns="http://www.w3.org/2000/svg">
<g id="Group">
<path id="Vector" d="M289.622 0.5H7.60808C3.68239 0.5 0.5 3.67174 0.5 7.58429V162.744C0.5 166.656 3.68239 169.828 7.60808 169.828H289.622C293.548 169.828 296.73 166.656 296.73 162.744V7.58429C296.73 3.67174 293.548 0.5 289.622 0.5Z" fill="var(--fill-0, #235E8B)" stroke="var(--stroke-0, #231815)" stroke-miterlimit="10"/>
<path id="Vector_2" d="M140.193 173.454V0.507236H156.892V173.454C154.271 176.688 143.148 176.399 140.193 173.454Z" fill="var(--fill-0, #0075BD)" stroke="var(--stroke-0, #231815)" stroke-miterlimit="10"/>
<path id="Vector_3" d="M281.745 7.73625H154.888C153.028 7.73625 151.519 9.2395 151.519 11.0939V159.958C151.519 161.812 153.028 163.316 154.888 163.316H281.745C283.605 163.316 285.114 161.812 285.114 159.958V11.0939C285.114 9.2395 283.605 7.73625 281.745 7.73625Z" fill="var(--fill-0, white)" stroke="var(--stroke-0, #231815)" stroke-miterlimit="10"/>
<path id="Vector_4" d="M141.602 7.73625H14.7452C12.8846 7.73625 11.3763 9.2395 11.3763 11.0939V159.958C11.3763 161.812 12.8846 163.316 14.7452 163.316H141.602C143.462 163.316 144.97 161.812 144.97 159.958V11.0939C144.97 9.2395 143.462 7.73625 141.602 7.73625Z" fill="var(--fill-0, white)" stroke="var(--stroke-0, #231815)" stroke-miterlimit="10"/>
<path id="Vector_5" d="M157.451 30.5594H139.155C138.393 30.5594 137.775 31.1749 137.775 31.9343V34.2499C137.775 35.0092 138.393 35.6247 139.155 35.6247H157.451C158.213 35.6247 158.831 35.0092 158.831 34.2499V31.9343C158.831 31.1749 158.213 30.5594 157.451 30.5594Z" fill="var(--fill-0, white)" stroke="var(--stroke-0, #231815)" stroke-miterlimit="10"/>
<path id="Vector_6" d="M157.451 51.284H139.155C138.393 51.284 137.775 51.8995 137.775 52.6589V54.9745C137.775 55.7338 138.393 56.3494 139.155 56.3494H157.451C158.213 56.3494 158.831 55.7338 158.831 54.9745V52.6589C158.831 51.8995 158.213 51.284 157.451 51.284Z" fill="var(--fill-0, white)" stroke="var(--stroke-0, #231815)" stroke-miterlimit="10"/>
<path id="Vector_7" d="M157.451 72.3921H139.155C138.393 72.3921 137.775 73.0077 137.775 73.767V76.0826C137.775 76.8419 138.393 77.4575 139.155 77.4575H157.451C158.213 77.4575 158.831 76.8419 158.831 76.0826V73.767C158.831 73.0077 158.213 72.3921 157.451 72.3921Z" fill="var(--fill-0, white)" stroke="var(--stroke-0, #231815)" stroke-miterlimit="10"/>
<path id="Vector_8" d="M157.451 92.8924H139.155C138.393 92.8924 137.775 93.508 137.775 94.2673V96.5829C137.775 97.3422 138.393 97.9578 139.155 97.9578H157.451C158.213 97.9578 158.831 97.3422 158.831 96.5829V94.2673C158.831 93.508 158.213 92.8924 157.451 92.8924Z" fill="var(--fill-0, white)" stroke="var(--stroke-0, #231815)" stroke-miterlimit="10"/>
<path id="Vector_9" d="M157.451 114.152H139.155C138.393 114.152 137.775 114.768 137.775 115.527V117.843C137.775 118.602 138.393 119.218 139.155 119.218H157.451C158.213 119.218 158.831 118.602 158.831 117.843V115.527C158.831 114.768 158.213 114.152 157.451 114.152Z" fill="var(--fill-0, white)" stroke="var(--stroke-0, #231815)" stroke-miterlimit="10"/>
<path id="Vector_10" d="M157.451 135.036H139.155C138.393 135.036 137.775 135.652 137.775 136.411V138.727C137.775 139.486 138.393 140.102 139.155 140.102H157.451C158.213 140.102 158.831 139.486 158.831 138.727V136.411C158.831 135.652 158.213 135.036 157.451 135.036Z" fill="var(--fill-0, white)" stroke="var(--stroke-0, #231815)" stroke-miterlimit="10"/>
</g>
</svg>
