<svg preserveAspectRatio="none" width="100%" height="100%" overflow="visible" style="display: block;" viewBox="0 0 188.672 231.448" fill="none" xmlns="http://www.w3.org/2000/svg">
<g id="Loupe">
<g id="Group">
<path id="Vector" d="M108.663 147.361C107.903 139.672 113.697 134.525 121.841 135.73L188.167 218.959C187.995 224.7 184.081 230.641 175.082 230.94L108.657 147.361H108.663Z" fill="var(--fill-0, #60C2EC)" stroke="var(--stroke-0, #231815)" stroke-miterlimit="10"/>
<path id="Vector_2" d="M175.238 230.652L171.778 226.277C178.287 226.349 182.883 221.441 184.746 215.106L187.928 219.12C187.352 227.459 180.776 230.402 175.238 230.652Z" fill="var(--fill-0, #E9897F)"/>
<path id="Vector_3" d="M99.6425 130.528L107.82 123.643L118.188 135.974C118.166 140.005 113.836 143.292 109.733 142.859L99.6425 130.528Z" fill="var(--fill-0, #1D5E8B)" stroke="var(--stroke-0, #231815)" stroke-miterlimit="10"/>
<path id="Vector_4" d="M110.836 145.674C113.625 145.946 119.818 141.065 120.25 138.095" stroke="var(--stroke-0, #231815)" stroke-linecap="round" stroke-linejoin="round"/>
</g>
<path id="Vector_5" d="M176.258 227.842C179.967 228.181 184.74 225.455 185.672 220.264" stroke="var(--stroke-0, #231815)" stroke-linecap="round" stroke-linejoin="round"/>
<path id="Vector_6" d="M32.0753 0.773145C78.9127 -4.82877 129.642 77.2124 116.818 113.283C114.839 118.852 100.834 130.078 100.834 130.078C129.614 92.0417 59.9405 -9.48131 10.963 11.6827C10.963 11.6827 24.441 1.68367 32.0809 0.773145H32.0753Z" fill="var(--fill-0, #165E8C)" stroke="var(--stroke-0, #231815)" stroke-linecap="round" stroke-linejoin="round"/>
<path id="Vector_7" d="M10.7301 11.816C64.0764 -10.5362 129.382 98.7762 100.779 130.023C52.855 165.733 -28.1292 47.2152 10.7301 11.816Z" fill="var(--fill-0, #F8D783)" stroke="var(--stroke-0, #231815)" stroke-miterlimit="10"/>
<path id="Vector_8" d="M15.6922 14.5697C58.438 -2.96332 121.625 94.2735 98.7388 125.598C57.0131 164.067 -24.2427 43.1401 15.6922 14.5697Z" fill="var(--fill-0, #60BFE8)" stroke="var(--stroke-0, #231815)" stroke-miterlimit="10"/>
<path id="Vector_9" d="M16.1136 14.3921C61.6425 -1.18114 121.647 97.2272 98.6778 125.72C58.937 152.341 -14.7898 47.5261 16.1136 14.3921Z" fill="var(--fill-0, white)" stroke="var(--stroke-0, #231815)" stroke-miterlimit="10"/>
<path id="Vector_10" d="M14.5224 23.9414C6.88247 59.7737 43.2025 118.047 85.8651 125.881" stroke="var(--stroke-0, #231815)" stroke-linecap="round" stroke-linejoin="round"/>
<path id="Vector_11" d="M24.7015 28.5718C26.2325 28.5718 27.4736 27.3289 27.4736 25.7958C27.4736 24.2627 26.2325 23.0198 24.7015 23.0198C23.1705 23.0198 21.9294 24.2627 21.9294 25.7958C21.9294 27.3289 23.1705 28.5718 24.7015 28.5718Z" stroke="var(--stroke-0, #231815)" stroke-miterlimit="10"/>
<path id="Vector_12" d="M21.8075 42.4516C24.1897 42.4516 26.1208 40.5178 26.1208 38.1322C26.1208 35.7467 24.1897 33.8128 21.8075 33.8128C19.4252 33.8128 17.4941 35.7467 17.4941 38.1322C17.4941 40.5178 19.4252 42.4516 21.8075 42.4516Z" stroke="var(--stroke-0, #231815)" stroke-miterlimit="10"/>
</g>
</svg>
