<svg preserveAspectRatio="none" width="100%" height="100%" overflow="visible" style="display: block;" viewBox="0 0 100.551 82.3221" fill="none" xmlns="http://www.w3.org/2000/svg">
<g id="Rock">
<path id="Vector" d="M0.531673 37.0258C2.2282 33.8056 5.31077 30.48 6.69682 27.6541C9.95127 21.0306 6.51941 18.5933 8.90896 14.3905C18.4838 10.2876 27.4709 2.73693 35.5322 0.516147C47.7627 3.43092 48.0122 9.71572 63.2532 7.41722L75.1732 10.0711C75.517 10.1488 75.8219 10.3486 75.9993 10.654C78.9045 15.5397 77.8622 23.6955 86.0121 27.432C88.8452 28.7312 94.9051 31.9235 93.2861 40.6401L99.9336 49.6953C100.078 49.8896 100.089 50.145 99.9669 50.3505L95.6258 57.729C90.3588 64.6634 91.9999 68.0889 88.2742 70.4541C82.3752 74.2016 75.9661 79.8591 70.9597 81.6857C70.566 81.83 70.1391 81.8633 69.7288 81.7689C66.7294 81.086 52.7747 77.9381 43.6157 76.2725C43.283 76.2114 42.9725 76.0782 42.6953 75.8839C40.6495 74.407 31.2798 67.567 18.9107 57.1738C18.2787 57.0239 8.04961 53.7593 8.04961 53.7593C5.44383 51.3831 0.68691 44.6541 0.526129 37.0202L0.531673 37.0258Z" fill="var(--fill-0, #9DA2A6)" stroke="var(--stroke-0, #231815)" stroke-miterlimit="10"/>
<path id="Vector_2" d="M65.6927 78.8819L68.6034 79.2928C69.5237 79.1151 72.2459 77.7937 72.3679 77.7549C73.1163 77.5328 74.5856 77.3996 75.7387 78.0713C77.025 77.4884 78.4942 76.9776 79.5643 76.0726L81.0723 74.1017L84.6815 71.8698C84.6815 71.8698 85.3857 70.232 85.7516 69.5213C86.8715 68.8051 85.5464 66.551 85.5464 66.551L77.7956 68.3166L72.3956 72.1141L68.7531 73.5187C68.7531 73.5187 66.43 72.9247 64.0904 73.5687C62.793 73.924 58.5517 75.8839 58.5517 75.8839L58.3521 76.8999C59.7326 77.4773 60.0487 78.9652 60.0487 78.9652L62.4715 79.5981L65.6982 78.8875L65.6927 78.8819Z" fill="var(--fill-0, #787E81)"/>
<path id="Vector_3" d="M48.5888 9.14943L44.3198 9.1994C43.466 9.84897 42.1132 10.6374 40.5774 10.2099L39.7569 12.1752C40.6273 13.7631 40.1339 15.4176 39.3189 16.7501L45.922 19.526L56.9827 17.2053C57.1989 16.2282 56.8552 15.8617 56.323 13.7686L48.5888 9.15498V9.14943Z" fill="var(--fill-0, #787E81)"/>
<path id="Vector_4" d="M26.667 44.8318L33.0041 53.5484C35.4269 55.0363 43.7154 56.1023 44.0536 56.2466C46.1327 57.1238 49.8085 60.1108 51.6104 65.6849C55.4636 66.3678 59.6439 67.7947 63.4362 66.6288L69.7233 62.0817L81.355 61.5099C81.355 61.5099 85.2803 56.4076 87.1265 54.3423C90.7746 54.0758 95.9917 52.066 97.91 51.5885L96.0305 48.2962L90.7358 41.5228L69.9118 30.1469L51.871 32.8896L41.2926 29.9415C41.2926 29.9415 36.5911 21.8801 30.1654 18.9098C26.5894 17.2608 13.8433 15.1566 13.8433 15.1566L11.9694 18.882C14.4476 24.6061 13.1503 31.5404 13.1503 31.5404L18.0347 40.0072L26.6615 44.8318H26.667Z" fill="var(--fill-0, #787E80)"/>
<path id="Vector_5" d="M12.2909 19.6482C13.7823 23.6678 14.176 28.0871 13.4275 32.3066L18.2066 41.1287" stroke="var(--stroke-0, #231815)" stroke-miterlimit="10"/>
<path id="Vector_6" d="M26.972 45.498L33.1981 54.0814C35.5821 55.5471 43.721 56.5964 44.0592 56.7407C46.0995 57.6068 49.7143 60.5494 51.4884 66.0347C55.2751 66.7065 59.3889 68.1167 63.1091 66.9619L69.2853 62.487L80.7174 61.9263C80.7174 61.9263 84.5707 56.8962 86.3892 54.8642C92.2494 54.7976 97.0728 52.9321 97.0728 52.9321" stroke="var(--stroke-0, #231815)" stroke-miterlimit="10"/>
<path id="Vector_7" d="M54.0277 72.8414C60.5643 72.3029 67.0953 71.7643 73.632 71.2258C74.9847 70.1154 76.3375 68.9995 78.1782 67.9113C80.6786 67.4005 83.1735 66.8897 85.674 66.3789" stroke="var(--stroke-0, #231815)" stroke-miterlimit="10"/>
<path id="Vector_8" d="M37.578 16.2948C39.9731 17.3163 42.3682 18.3379 44.7633 19.3595C45.1181 19.5094 45.4785 19.6648 45.8611 19.7148C46.3379 19.7759 46.8147 19.6759 47.2859 19.5815C50.6235 18.8764 53.9667 18.1713 57.3043 17.4663" stroke="var(--stroke-0, #231815)" stroke-miterlimit="10"/>
</g>
</svg>
